<?xml version="1.0" standalone="no"?><!DOCTYPE svg PUBLIC "-//W3C//DTD SVG 1.1//EN" "http://www.w3.org/Graphics/SVG/1.1/DTD/svg11.dtd"><svg t="1759231906763" class="icon" viewBox="0 0 1799 1024" version="1.1" xmlns="http://www.w3.org/2000/svg" p-id="18867" xmlns:xlink="http://www.w3.org/1999/xlink" width="351.3671875" height="200"><path d="M964.923077 0L630.153846 1014.153846H324.923077L9.846154 0h295.384615l128 462.769231c9.846154 49.230769 29.538462 137.846154 49.230769 256C502.153846 620.307692 512 541.538462 531.692308 472.615385L669.538462 0h295.384615zM777.846154 0h620.307692c108.307692 0 177.230769 9.846154 226.461539 29.538462 68.923077 29.538462 108.307692 68.923077 137.846153 137.846153 9.846154 39.384615 19.692308 68.923077 19.692308 108.307693 0 68.923077-19.692308 128-59.076923 177.230769a354.461538 354.461538 0 0 1-98.461538 68.923077c-19.692308 0-29.538462 9.846154-49.23077 9.846154 39.384615 9.846154 59.076923 19.692308 78.769231 29.538461 59.076923 39.384615 88.615385 98.461538 88.615385 196.923077v265.846154h-275.692308V787.692308c0-49.230769-9.846154-88.615385-29.538461-108.307693-19.692308-19.692308-68.923077-29.538462-128-29.538461h-236.307693V403.692308h324.923077c49.230769 0 78.769231-9.846154 88.615385-29.538462 9.846154-9.846154 19.692308-29.538462 19.692307-49.230769 0-29.538462-9.846154-39.384615-19.692307-59.076923a152.615385 152.615385 0 0 0-78.769231-19.692308H797.538462V0z" p-id="18868" fill="#2c2c2c"></path></svg>